<svg xmlns="http://www.w3.org/2000/svg" viewBox="0 0 64 64" fill="currentColor"><path d="M60.742 45.779a2.13 2.13 0 00-3.01 0 5.627 5.627 0 01-4.01 1.66c-.65 0-1.28-.13-1.88-.34.08-4.65-1.49-15.24-16.96-16.7-.38-1.15-.7-2.58-.7-4.18 0-1.54.29-2.77.49-3.66.59-.19 1.52-.34 2.78-.34 2.57 0-.23-4.37.86-5 1.71-1 1.88 4 2.57 4 .99 0 2.3 0 2.57-1 .22-.83-1.71-4 0-4s.86 4 2.57 4h4.29c3.53 0-4.25-12-13.13-7-3.66 2.06-4.15 5.21-4.12 6.88-.32-1.7-1.5-4.93-5.88-6.88-9-4-18.12 7-14 7h5c2 0 1-4 3-4s-1 4 0 4c.5 0 2.25.25 3 1 1 1 1-5 3-4 1.26.63-2 5 1 5 1.56 0 2.7.16 3.37.37-1.57 2.12-2.7 5.98-3.15 7.73-18.13 1.17-18.53 13.71-18.3 17.08-.15.01-.3.04-.46.04-1.51 0-2.94-.59-4.01-1.66a2.13 2.13 0 00-3.01 0 2.13 2.13 0 000 3.01 9.857 9.857 0 007.01 2.91c2.65 0 5.14-1.03 7.01-2.91a5.68 5.68 0 018.02 0 9.857 9.857 0 007.01 2.91c2.65 0 5.14-1.03 7.01-2.91a5.68 5.68 0 018.02 0 9.857 9.857 0 007.01 2.91c2.65 0 5.14-1.03 7.01-2.91.85-.83.85-2.18.02-3.01z" fill="currentColor"></path></svg>